<svg xmlns="http://www.w3.org/2000/svg" viewBox="0 0 64 64" role="img" aria-label="Trap kill marker">
  <circle cx="32" cy="32" r="30" fill="#ffffff" stroke="#111111" stroke-width="4"/>
  <path d="M15 47 L49 17 M49 47 L15 17" stroke="#7a0b0b" stroke-width="7" stroke-linecap="round"/>
  <circle cx="20" cy="50" r="5" fill="#7a0b0b"/>
  <circle cx="44" cy="14" r="5" fill="#7a0b0b"/>
  <circle cx="44" cy="50" r="5" fill="#7a0b0b"/>
  <circle cx="20" cy="14" r="5" fill="#7a0b0b"/>
  <path d="M32 10 C21 10 13 18 13 30 C13 38 18 44 25 47 L25 54 L30 54 L30 49 L34 49 L34 54 L39 54 L39 47 C46 44 51 38 51 30 C51 18 43 10 32 10 Z" fill="#111111"/>
  <circle cx="24" cy="29" r="6" fill="#ffffff"/>
  <circle cx="40" cy="29" r="6" fill="#ffffff"/>
  <path d="M32 35 L28 43 L36 43 Z" fill="#ffffff"/>
  <rect x="21" y="45" width="22" height="4" rx="2" fill="#ffffff"/>
</svg>
